# xmcd
# Track frame offsets:
# 150
# 20656
# 40071
# 52121
# 71870
# 85265
# 102016
# 117980
# 134502
# 149923
# 167335
# 184805
# 200310
# 217364
# 230223
# 249656
# 261082
# 282688
#
# Disc length: 3990 seconds
# Revision: 0
# Processed by: cddbd v1.4PL0 Copyright (c) Steve Scherf et al.
# Submitted via: VisiTrax 2.9.2.167 - For more info visit www.synapsa.com
#
DISCID=270f9412
DTITLE=Garth Brooks - The Hits
DYEAR=1994
DGENRE=
TTITLE0=Ain't Going Down (Til The Sun Comes Up)
TTITLE1=Friends In Low Places
TTITLE2=Callin' Baton Rouge
TTITLE3=The River
TTITLE4=Much Too Young (To Feel This Damn Old)
TTITLE5=The Thunder Rolls
TTITLE6=American Honky-Tonk Bar Association
TTITLE7=If Tomorrow Never Comes
TTITLE8=Unanswered Prayers
TTITLE9=Standing Outside The Fire
TTITLE10=Rodeo
TTITLE11=What She's Doing Now
TTITLE12=We Shall Be Free
TTITLE13=Papa Loved Mama
TTITLE14=Shameless
TTITLE15=Two Of A Kind, Workin' On A Full House
TTITLE16=That Summer
TTITLE17=The Dance
EXTD=YEAR: 1994
EXTT0=
EXTT1=
EXTT2=
EXTT3=
EXTT4=
EXTT5=
EXTT6=
EXTT7=
EXTT8=
EXTT9=
EXTT10=
EXTT11=
EXTT12=
EXTT13=
EXTT14=
EXTT15=
EXTT16=
EXTT17=
PLAYORDER=
